<svg width="512" height="512" viewBox="0 0 512 512" fill="none" xmlns="http://www.w3.org/2000/svg">
<rect width="512" height="512" rx="85" fill="white"/>
<rect x="148" y="101" width="216" height="310" rx="40" fill="#E6F4FD" stroke="black" stroke-width="20"/>
<mask id="mask0_10_2" style="mask-type:alpha" maskUnits="userSpaceOnUse" x="158" y="111" width="196" height="290">
<rect x="158" y="111" width="196" height="290" rx="30" fill="#002A42"/>
</mask>
<g mask="url(#mask0_10_2)">
<rect x="158" y="286" width="198" height="130" fill="#69C478"/>
<circle cx="193.5" cy="146.5" r="24.5" fill="#FFA800"/>
<path d="M308.83 260.511C301.761 260.511 296.006 266.215 296.006 273.255C296.006 280.078 301.596 286 308.83 286C315.872 286 321.627 280.323 321.627 273.255C321.627 266.215 315.9 260.511 308.83 260.511ZM308.803 277.322C306.474 277.322 304.912 275.466 304.748 273.665L304.72 273.065C304.72 271.018 306.556 269.189 308.803 269.189C311.05 269.189 312.913 271.018 312.913 273.255C312.913 275.302 311.214 277.322 308.803 277.322Z" fill="black"/>
<path d="M204.266 260.511C197.196 260.511 191.469 266.215 191.469 273.255C191.469 280.269 197.169 286 204.266 286C211.336 286 217.062 280.269 217.062 273.255C217.062 266.215 211.336 260.511 204.266 260.511ZM208.211 274.211C207.828 275.821 206.348 277.322 204.266 277.322C201.909 277.322 200.347 275.466 200.21 273.665L200.155 273.065C200.155 271.018 201.991 269.189 204.266 269.189C206.513 269.189 208.349 271.018 208.349 273.255C208.349 273.583 208.321 273.911 208.211 274.211Z" fill="black"/>
<path d="M340.945 274.429H336.835L338.479 269.517C339.328 266.979 338.78 264.195 337.081 262.23C337.081 262.23 337.081 262.23 337.081 262.203C332.438 256.78 325.852 253.148 319.024 250.932C318.996 250.932 318.996 250.932 318.969 250.932C312.721 248.912 305.241 247.657 296.143 247.112C292.526 246.893 289.238 245.72 286.58 243.755C263.535 226.753 234.353 227.299 194.977 245.392L190.154 240.971L200.758 237.669C201.635 237.423 202.238 236.578 202.211 235.677C202.183 234.749 201.553 233.985 200.648 233.739L174.288 227.053C173.576 226.89 172.781 227.108 172.261 227.654C171.767 228.227 171.603 229.018 171.85 229.728L176.59 243.1C176.618 243.209 176.672 243.318 176.727 243.4L181.522 252.024C179.44 253.115 177.33 254.207 175.247 255.353C174.617 255.735 174.206 256.417 174.206 257.154V268.425C173.329 268.152 172.507 267.879 171.767 267.607C170.699 267.224 169.521 267.77 169.137 268.834C168.726 269.899 169.274 271.072 170.342 271.454C171.85 272 173.521 272.546 175.494 273.092C175.521 273.092 175.521 273.092 175.549 273.119C175.604 273.119 175.631 273.146 175.686 273.174C179.275 274.21 183.167 275.057 187.578 275.794C187.414 275.029 187.359 274.047 187.359 273.255C187.359 263.977 194.922 256.417 204.266 256.417C213.582 256.417 221.173 263.977 221.173 273.255C221.173 274.62 220.981 275.984 220.652 277.322C220.542 277.704 220.46 278.086 220.323 278.468C222.406 278.495 224.543 278.523 226.68 278.523H292.773C292.663 278.195 292.554 277.84 292.471 277.486C292.088 276.23 291.896 274.811 291.896 273.255C291.896 263.977 299.486 256.417 308.83 256.417C318.147 256.417 325.737 263.977 325.737 273.255C325.737 274.702 325.545 276.148 325.189 277.513C325.107 277.868 324.997 278.195 324.888 278.523H340.945C342.096 278.523 343 277.622 343 276.476C343 275.357 342.096 274.429 340.945 274.429ZM257.37 260.538H252.575C251.451 260.538 250.52 259.61 250.52 258.491C250.52 257.345 251.451 256.445 252.575 256.445H257.37C258.521 256.445 259.425 257.345 259.425 258.491C259.425 259.61 258.521 260.538 257.37 260.538ZM207.417 249.759C222.844 243.482 236.243 240.426 248.108 240.426C259.973 240.426 270.222 243.509 279.401 249.759H207.417ZM320.421 255.79C323.101 256.732 327.408 258.965 330.724 261.684C327.772 261.44 320.989 259.759 320.421 255.79Z" fill="black"/>
<path d="M307.52 206V158.896H296.384V141.488C298.859 141.488 301.461 140.635 304.192 138.928C307.008 137.136 309.099 134.277 310.464 130.352H330.304V206H307.52ZM309.568 203.696H328.256V132.656H312C310.805 136.24 308.885 139.013 306.24 140.976C303.68 142.853 301.12 143.792 298.56 143.792V156.592H309.568V203.696ZM310.592 202.544V155.44H299.584V144.944C301.803 144.944 304.192 144.091 306.752 142.384C309.312 140.592 311.275 137.733 312.64 133.808H327.232V202.544H310.592Z" fill="black"/>
</g>
<rect x="191.481" y="72.2474" width="216" height="310" rx="40" transform="rotate(15 191.481 72.2474)" fill="#E6F4FD" stroke="black" stroke-width="20"/>
<mask id="mask1_10_2" style="mask-type:alpha" maskUnits="userSpaceOnUse" x="130" y="91" width="251" height="318">
<rect x="198.552" y="84.4949" width="196" height="290" rx="30" transform="rotate(15 198.552 84.4949)" fill="#002A42"/>
</mask>
<g mask="url(#mask1_10_2)">
<rect x="153.259" y="253.532" width="198" height="130" transform="rotate(15 153.259 253.532)" fill="#69C478"/>
<circle cx="223.655" cy="127.973" r="24.5" transform="rotate(15 223.655 127.973)" fill="#FFA800"/>
<path d="M305.547 267.949C298.718 266.119 291.684 270.139 289.861 276.94C288.096 283.53 291.962 290.697 298.95 292.57C305.752 294.392 312.78 290.399 314.609 283.571C316.431 276.771 312.376 269.779 305.547 267.949ZM301.169 284.18C298.92 283.577 297.891 281.38 298.199 279.598L298.328 279.011C298.857 277.034 301.104 275.743 303.274 276.325C305.445 276.906 306.771 279.155 306.192 281.316C305.662 283.293 303.499 284.804 301.169 284.18Z" fill="black"/>
<path d="M204.545 240.886C197.717 239.056 190.709 243.083 188.887 249.884C187.071 256.659 191.093 263.67 197.948 265.506C204.777 267.336 211.792 263.282 213.607 256.508C215.43 249.707 211.374 242.715 204.545 240.886ZM204.811 255.14C204.024 256.596 202.206 257.663 200.194 257.124C197.918 256.514 196.89 254.317 197.224 252.542L197.326 251.948C197.856 249.971 200.102 248.68 202.299 249.268C204.47 249.85 205.77 252.091 205.19 254.253C205.106 254.569 204.994 254.879 204.811 255.14Z" fill="black"/>
<path d="M332.965 289.705L328.995 288.641L331.854 284.322C333.332 282.09 333.523 279.26 332.39 276.922C332.39 276.922 332.39 276.922 332.397 276.896C329.316 270.456 323.894 265.243 317.872 261.335C317.846 261.328 317.846 261.328 317.82 261.321C312.307 257.753 305.407 254.604 296.76 251.723C293.323 250.575 290.451 248.591 288.392 246.005C270.533 223.619 242.203 216.593 199.486 223.878L195.972 218.36L207.069 217.915C207.98 217.904 208.781 217.243 208.988 216.366C209.201 215.463 208.79 214.562 207.98 214.09L184.249 200.809C183.603 200.467 182.779 200.472 182.135 200.865C181.51 201.29 181.147 202.013 181.201 202.762L182.319 216.905C182.317 217.018 182.342 217.137 182.374 217.231L184.773 226.802C182.479 227.317 180.159 227.825 177.851 228.393C177.143 228.599 176.57 229.152 176.379 229.863L173.462 240.751C172.685 240.26 171.962 239.783 171.318 239.328C170.385 238.683 169.105 238.905 168.459 239.834C167.787 240.755 168.012 242.031 168.946 242.676C170.26 243.594 171.733 244.554 173.498 245.591C173.524 245.598 173.524 245.598 173.544 245.632C173.597 245.646 173.616 245.68 173.662 245.72C176.861 247.651 180.4 249.475 184.471 251.329C184.51 250.548 184.711 249.585 184.916 248.82C187.318 239.858 196.579 234.513 205.605 236.932C214.604 239.343 219.979 248.609 217.578 257.572C217.224 258.89 216.686 260.158 216.022 261.365C215.817 261.705 215.639 262.053 215.408 262.387C217.412 262.952 219.47 263.532 221.534 264.085L285.375 281.191C285.354 280.846 285.34 280.475 285.352 280.111C285.307 278.799 285.489 277.379 285.891 275.876C288.293 266.914 297.581 261.577 306.606 263.995C315.606 266.406 320.981 275.673 318.579 284.635C318.205 286.032 317.645 287.38 316.948 288.606C316.777 288.927 316.586 289.215 316.395 289.503L331.906 293.659C333.017 293.957 334.124 293.321 334.42 292.214C334.71 291.133 334.077 290.003 332.965 289.705ZM255.833 254.656L251.201 253.415C250.116 253.125 249.456 251.987 249.746 250.906C250.042 249.8 251.175 249.171 252.261 249.461L256.893 250.702C258.004 251 258.645 252.104 258.348 253.211C258.058 254.292 256.945 254.954 255.833 254.656ZM210.372 231.316C226.898 229.245 240.632 229.761 252.092 232.832C263.553 235.903 272.654 241.534 279.903 249.946L210.372 231.316ZM317.965 266.389C320.309 267.993 323.892 271.264 326.391 274.749C323.603 273.748 317.486 270.37 317.965 266.389Z" fill="black"/>
<path d="M318.39 214.956L330.581 169.458L319.825 166.575L324.33 149.76C326.72 150.401 329.455 150.25 332.535 149.309C335.719 148.306 338.478 146.086 340.813 142.648L359.977 147.783L340.397 220.853L318.39 214.956ZM320.964 213.261L339.016 218.098L357.402 149.479L341.7 145.271C339.618 148.424 337.046 150.606 333.983 151.817C331.024 152.968 328.308 153.212 325.836 152.549L322.523 164.913L333.156 167.762L320.964 213.261ZM322.252 212.413L334.443 166.914L323.81 164.065L326.527 153.927C328.67 154.501 331.198 154.295 334.113 153.309C337.05 152.241 339.685 149.988 342.02 146.55L356.115 150.326L338.325 216.72L322.252 212.413Z" fill="black"/>
</g>
<rect x="111.247" y="134.152" width="216" height="310" rx="40" transform="rotate(-15 111.247 134.152)" fill="#E6F4FD" stroke="black" stroke-width="20"/>
<mask id="mask2_10_2" style="mask-type:alpha" maskUnits="userSpaceOnUse" x="130" y="97" width="251" height="318">
<rect x="123.495" y="141.223" width="196" height="290" rx="30" transform="rotate(-15 123.495 141.223)" fill="#002A42"/>
</mask>
<g mask="url(#mask2_10_2)">
<rect x="168.788" y="310.26" width="198" height="130" transform="rotate(-15 168.788 310.26)" fill="#69C478"/>
<circle cx="166.973" cy="166.326" r="24.5" transform="rotate(-15 166.973 166.326)" fill="#FFA800"/>
<path d="M307.882 246.602C301.053 248.432 296.971 255.431 298.793 262.231C300.559 268.822 307.492 273.095 314.479 271.223C321.281 269.4 325.371 262.428 323.541 255.6C321.719 248.799 314.711 244.772 307.882 246.602ZM312.207 262.847C309.957 263.45 307.968 262.062 307.343 260.365L307.161 259.792C306.631 257.815 307.931 255.573 310.102 254.992C312.272 254.41 314.545 255.694 315.124 257.856C315.654 259.833 314.536 262.223 312.207 262.847Z" fill="black"/>
<path d="M206.88 273.665C200.052 275.495 195.996 282.487 197.819 289.288C199.634 296.062 206.622 300.123 213.477 298.286C220.306 296.456 224.355 289.438 222.54 282.664C220.717 275.863 213.709 271.836 206.88 273.665ZM214.237 285.877C214.284 287.532 213.243 289.365 211.231 289.904C208.955 290.514 206.966 289.125 206.368 287.421L206.159 286.855C205.63 284.878 206.93 282.637 209.126 282.048C211.297 281.466 213.543 282.758 214.123 284.919C214.207 285.235 214.266 285.559 214.237 285.877Z" fill="black"/>
<path d="M342.505 251.734L338.534 252.798L338.851 247.627C339.015 244.956 337.765 242.409 335.615 240.951C335.615 240.951 335.615 240.951 335.608 240.925C329.72 236.889 322.418 235.085 315.249 234.711C315.222 234.718 315.222 234.718 315.196 234.725C308.639 234.392 301.088 235.115 292.159 236.943C288.609 237.668 285.129 237.386 282.053 236.176C255.393 225.718 227.346 233.798 193.995 261.466L188.192 258.444L197.581 252.51C198.364 252.045 198.727 251.072 198.468 250.21C198.201 249.32 197.395 248.745 196.457 248.742L169.265 249.106C168.535 249.133 167.823 249.549 167.462 250.211C167.134 250.892 167.18 251.7 167.602 252.321L175.642 264.011C175.696 264.109 175.777 264.2 175.851 264.265L182.715 271.354C180.986 272.947 179.231 274.548 177.516 276.194C177.006 276.726 176.786 277.491 176.976 278.203L179.894 289.09C178.976 289.053 178.111 289.002 177.326 288.93C176.195 288.838 175.198 289.67 175.103 290.797C174.981 291.932 175.814 292.924 176.945 293.016C178.543 293.153 180.298 293.248 182.345 293.264C182.372 293.257 182.372 293.257 182.405 293.277C182.458 293.262 182.492 293.282 182.552 293.294C186.287 293.366 190.265 293.176 194.717 292.746C194.36 292.051 194.053 291.116 193.848 290.351C191.447 281.389 196.796 272.13 205.821 269.711C214.82 267.3 224.108 272.637 226.51 281.6C226.863 282.918 227.031 284.285 227.059 285.663C227.052 286.06 227.072 286.45 227.038 286.855C229.057 286.342 231.128 285.815 233.193 285.262L297.034 268.156C296.843 267.868 296.645 267.554 296.474 267.232C295.779 266.119 295.226 264.798 294.823 263.295C292.422 254.333 297.797 245.066 306.823 242.648C315.822 240.237 325.11 245.574 327.511 254.537C327.886 255.934 328.075 257.381 328.084 258.791C328.096 259.155 328.075 259.499 328.054 259.844L343.564 255.688C344.676 255.39 345.316 254.286 345.019 253.179C344.73 252.098 343.616 251.436 342.505 251.734ZM258.182 259.947L253.55 261.188C252.465 261.479 251.325 260.824 251.036 259.743C250.739 258.636 251.406 257.525 252.491 257.234L257.123 255.993C258.235 255.695 259.341 256.331 259.638 257.438C259.927 258.519 259.294 259.649 258.182 259.947ZM207.141 262.464C220.418 252.408 232.57 245.988 244.031 242.917C255.491 239.846 266.188 240.172 276.673 243.833L207.141 262.464ZM317.856 239.042C320.688 239.259 325.427 240.301 329.334 242.069C326.418 242.597 319.432 242.729 317.856 239.042Z" fill="black"/>
<path d="M292.508 194.288L280.316 148.789L269.56 151.671L265.054 134.856C267.445 134.216 269.738 132.718 271.934 130.363C274.19 127.903 275.47 124.6 275.772 120.455L294.936 115.32L314.516 188.391L292.508 194.288ZM293.89 191.532L311.941 186.695L293.554 118.076L277.852 122.283C277.626 126.054 276.489 129.23 274.442 131.811C272.455 134.287 270.225 135.856 267.753 136.518L271.065 148.882L281.698 146.033L293.89 191.532ZM294.581 190.154L282.389 144.655L271.756 147.505L269.04 137.366C271.183 136.792 273.27 135.349 275.301 133.038C277.31 130.645 278.466 127.375 278.769 123.23L292.864 119.454L310.654 185.848L294.581 190.154Z" fill="black"/>
</g>
</svg>
